<?xml version="1.0" encoding="UTF-8" standalone="no"?>
<svg
   xmlns:dc="http://purl.org/dc/elements/1.1/"
   xmlns:cc="http://creativecommons.org/ns#"
   xmlns:rdf="http://www.w3.org/1999/02/22-rdf-syntax-ns#"
   xmlns:svg="http://www.w3.org/2000/svg"
   xmlns="http://www.w3.org/2000/svg"
   viewBox="0 0 1052.3625 1052.3625"
   height="1052.3625"
   width="1052.3625"
   xml:space="preserve"
   version="1.1"
   id="svg2"><metadata
     id="metadata8"><rdf:RDF><cc:Work
         rdf:about=""><dc:format>image/svg+xml</dc:format><dc:type
           rdf:resource="http://purl.org/dc/dcmitype/StillImage" /></cc:Work></rdf:RDF></metadata><defs
     id="defs6"><clipPath
       id="clipPath16"
       clipPathUnits="userSpaceOnUse"><path
         id="path18"
         d="m 0,841.89 841.89,0 L 841.89,0 0,0 0,841.89 Z" /></clipPath></defs><g
     transform="matrix(1.25,0,0,-1.25,0,1052.3625)"
     id="g10"><g
       id="g12"><g
         clip-path="url(#clipPath16)"
         id="g14"><g
           transform="translate(154.2822,418.1389)"
           id="g20"><path
             id="path22"
             style="fill:#ec383b;fill-opacity:1;fill-rule:evenodd;stroke:none"
             d="m 0,0 266.664,0 0,-378.842 c 0,0 -51.939,33.919 -154.345,50.513 -88.38,14.321 -112.46,59.115 -112.318,114.804 C 0.07,-186.384 0,-54.057 0,0" /></g><g
           transform="translate(420.9449,802.5925)"
           id="g24"><path
             id="path26"
             style="fill:#c0363f;fill-opacity:1;fill-rule:evenodd;stroke:none"
             d="m 0,0 -61.838,-61.737 -204.825,0 0,-322.717 266.663,0 L 0,0 Z" /></g><g
           transform="translate(420.9459,802.5925)"
           id="g28"><path
             id="path30"
             style="fill:#ec383b;fill-opacity:1;fill-rule:evenodd;stroke:none"
             d="m 0,0 61.838,-61.737 204.825,0 0,-322.717 L 0,-384.454 0,0 Z" /></g><g
           transform="translate(687.6096,418.1389)"
           id="g32"><path
             id="path34"
             style="fill:#c0363f;fill-opacity:1;fill-rule:evenodd;stroke:none"
             d="m 0,0 -266.664,0 0,-378.842 c 0,0 51.939,33.919 154.345,50.513 88.38,14.321 112.46,59.115 112.318,114.804 C -0.07,-186.384 0,-54.057 0,0" /></g><g
           transform="translate(314.277,512.7712)"
           id="g36"><path
             id="path38"
             style="fill:#ffffff;fill-opacity:1;fill-rule:nonzero;stroke:none"
             d="m 0,0 0,126.735 19.885,0 0,-55.236 26.425,55.236 19.532,0 L 38.18,70.261 65.842,0 45.427,0 26.072,50.464 19.885,38.887 19.885,0 0,0 Z" /></g><g
           transform="translate(389.1339,512.7712)"
           id="g40"><path
             id="path42"
             style="fill:#ffffff;fill-opacity:1;fill-rule:nonzero;stroke:none"
             d="m 0,0 0,126.735 62.837,0 0,-126.735 -20.327,0 0,108.618 -22.625,0 L 19.885,0 0,0 Z" /></g><g
           transform="translate(466.3766,512.7712)"
           id="g44"><path
             id="path46"
             style="fill:#ffffff;fill-opacity:1;fill-rule:nonzero;stroke:none"
             d="m 0,0 0,126.735 17.94,0 0,-75.917 20.35,75.917 24.989,0 0,-126.735 -17.94,0 0,91.737 L 20.584,0 0,0 Z" /></g><g
           transform="translate(314.0768,196.7712)"
           id="g48"><path
             id="path50"
             style="fill:#ffffff;fill-opacity:1;fill-rule:nonzero;stroke:none"
             d="m 0,0 0,123.234 19.336,0 0,-105.617 31.883,0 L 51.219,0 0,0 Z" /></g><path
           id="path52"
           style="fill:#ffffff;fill-opacity:1;fill-rule:nonzero;stroke:none"
           d="m 374.061,320.006 19.336,0 0,-123.234 -19.336,0 0,123.234 z" /><g
           transform="translate(402.4205,320.0056)"
           id="g54"><path
             id="path56"
             style="fill:#ffffff;fill-opacity:1;fill-rule:nonzero;stroke:none"
             d="M 0,0 19.336,0 34.158,-100.838 48.984,0 66.773,0 47.787,-123.234 l -28.802,0 L 0,0 Z" /></g><g
           transform="translate(478.2174,196.7712)"
           id="g58"><path
             id="path60"
             style="fill:#ffffff;fill-opacity:1;fill-rule:nonzero;stroke:none"
             d="m 0,0 0,123.234 52.766,0 0,-17.617 -33.43,0 0,-34.375 26.555,0 0,-17.531 -26.555,0 0,-36.094 33.43,0 L 52.766,0 0,0 Z" /></g><g
           transform="translate(513.1574,401.2238)"
           id="g62"><path
             id="path64"
             style="fill:#ffffff;fill-opacity:1;fill-rule:nonzero;stroke:none"
             d="m 0,0 c -6.834,-5.286 -8.59,-8.792 -10.481,-7.95 -2.052,0.511 -36.86,15.632 -58.025,24.862 21.163,9.229 55.988,24.356 58.041,24.868 1.891,0.842 3.647,-2.664 10.481,-7.95 9.88,-8.589 16.771,-2.237 18.804,-0.279 0.371,0.483 11.037,11.935 6.121,18.857 -4.514,6.363 -15.114,9.901 -16.801,10.432 0.64,1.464 5.027,11.914 3.171,19.571 -2,8.25 -17.641,7.714 -18.25,7.75 -2.811,-0.248 -12.125,-1.284 -12.125,-14.375 -0.495,-8.625 1,-12.25 -0.875,-13.125 -2.493,-1.744 -72.203,-34.781 -72.656,-34.996 -0.322,0.153 -70.165,33.251 -72.659,34.997 -1.875,0.875 -0.381,4.5 -0.875,13.125 0,13.091 -9.314,14.127 -12.125,14.375 -0.61,-0.036 -16.25,0.5 -18.25,-7.75 -1.856,-7.657 2.53,-18.108 3.171,-19.571 -1.685,-0.531 -12.287,-4.069 -16.803,-10.432 -4.915,-6.922 5.75,-18.374 6.122,-18.858 2.033,-1.958 8.924,-8.309 18.805,0.28 6.833,5.286 8.589,8.791 10.479,7.95 2.053,-0.513 36.861,-15.633 58.026,-24.863 -21.163,-9.229 -55.988,-24.357 -58.041,-24.869 -1.891,-0.842 -3.647,2.664 -10.48,7.951 -9.881,8.588 -16.771,2.237 -18.804,0.279 -0.372,-0.484 -11.037,-11.935 -6.122,-18.857 4.515,-6.363 15.118,-9.902 16.802,-10.433 -0.64,-1.464 -5.027,-11.914 -3.171,-19.571 2,-8.25 17.64,-7.714 18.25,-7.75 2.811,0.248 12.125,1.283 12.125,14.375 0.495,8.625 -1,12.25 0.875,13.125 2.495,1.746 72.337,34.844 72.659,34.996 0.453,-0.215 70.164,-33.251 72.656,-34.995 1.875,-0.875 0.381,-4.5 0.875,-13.125 0,-13.091 9.314,-14.126 12.125,-14.375 0.609,0.036 16.25,-0.5 18.25,7.75 1.856,7.657 -2.53,18.107 -3.171,19.571 1.687,0.531 12.287,4.07 16.802,10.432 4.916,6.922 -5.75,18.374 -6.121,18.857 C 16.771,2.237 9.881,8.589 0,0" /></g></g></g></g></svg>